<svg width="7" height="11" viewBox="0 0 7 11" fill="none" xmlns="http://www.w3.org/2000/svg">
<path d="M3.36774 4.03897V0L6.69162 5.53463L6.68253 5.54945L3.36774 4.03897Z" fill="white"/>
<path d="M3.32674 0.0884622V0.165982C3.32674 1.41731 3.32674 2.66825 3.32674 3.91882C3.32674 3.97582 3.31992 4.01686 3.25517 4.0465C2.21651 4.51731 1.17879 4.99002 0.142022 5.46464C0.120438 5.47433 0.0982869 5.48174 0.0568237 5.4977L3.30799 0.0827637L3.32674 0.0884622Z" fill="white"/>
<path d="M3.32387 4.05444V7.54223L0 5.57006L3.32387 4.05444Z" fill="white"/>
<path d="M3.36932 4.08057L6.68752 5.59333L3.36932 7.56209V4.08057Z" fill="white"/>
<path d="M6.61355 6.39364C5.53588 7.91552 4.45556 9.44216 3.3726 10.9735C3.36862 10.9405 3.36407 10.9222 3.36407 10.9034C3.36407 10.0593 3.36407 9.21511 3.36407 8.37152C3.36518 8.35197 3.37047 8.33289 3.37958 8.31558C3.3887 8.29826 3.40143 8.28313 3.4169 8.2712C4.47714 7.63965 5.53739 7.01019 6.59764 6.38281L6.61355 6.39364Z" fill="white"/>
<path d="M0.126792 6.38403C1.17492 7.00457 2.22229 7.62605 3.2689 8.24848C3.28438 8.25839 3.2975 8.27159 3.30731 8.28715C3.31713 8.30272 3.32341 8.32026 3.3257 8.33854C3.32911 9.18555 3.32911 10.0327 3.3257 10.8801C3.32397 10.8946 3.32112 10.9089 3.31719 10.9229L0.113159 6.39486L0.126792 6.38403Z" fill="white"/>
</svg>
